<svg width="21" height="21" viewBox="0 0 21 21" fill="none" xmlns="http://www.w3.org/2000/svg">
  <path fill-rule="evenodd" clip-rule="evenodd" d="M9.739 1.5C5.196 1.5 1.5 5.195 1.5 9.738C1.5 14.281 5.196 17.977 9.739 17.977C14.281 17.977 17.977 14.281 17.977 9.738C17.977 5.195 14.281 1.5 9.739 1.5ZM9.739 19.477C4.369 19.477 0 15.108 0 9.738C0 4.368 4.369 0 9.739 0C15.109 0 19.477 4.368 19.477 9.738C19.477 15.108 15.109 19.477 9.739 19.477Z" fill="currentColor"/>
  <path fill-rule="evenodd" clip-rule="evenodd" d="M19.514 20.722C19.323 20.722 19.131 20.649 18.984 20.503L15.46 16.989C15.167 16.696 15.166 16.221 15.459 15.928C15.751 15.633 16.226 15.635 16.52 15.926L20.044 19.441C20.337 19.734 20.338 20.208 20.045 20.501C19.899 20.649 19.706 20.722 19.514 20.722Z" fill="currentColor"/>
</svg>
